<svg xmlns="http://www.w3.org/2000/svg" viewBox="0 0 3087.71 2294.2"><defs><style>.cls-1,.cls-3{fill:none;}.cls-1,.cls-2,.cls-3,.cls-4{stroke:#cf0;}.cls-1,.cls-3,.cls-4{stroke-linecap:round;stroke-linejoin:round;}.cls-1{stroke-width:67.38px;}.cls-2,.cls-4,.cls-5{fill:#cf0;}.cls-2{stroke-miterlimit:10;}.cls-3,.cls-4{stroke-width:80.86px;}</style></defs><g id="Layer_2" data-name="Layer 2"><g id="Layer_1-2" data-name="Layer 1"><circle class="cls-1" cx="2191.51" cy="764.01" r="387.6"/><circle class="cls-2" cx="2193.73" cy="574.93" r="93.76"/><circle class="cls-2" cx="1977.51" cy="768.15" r="93.76"/><circle class="cls-2" cx="2193.73" cy="965.03" r="93.76"/><circle class="cls-2" cx="2407.7" cy="768.15" r="93.76"/><path class="cls-1" d="M1286.8,764c0,214.06-173.55,387.61-387.61,387.61S511.62,978.07,511.62,764s173.52-387.6,387.57-387.6S1286.8,550,1286.8,764Z"/><path class="cls-2" d="M1006.67,682h96.26a30.23,30.23,0,0,1,30.31,30.15V814.31a30.23,30.23,0,0,1-30.31,30.14h-96.44a12.16,12.16,0,0,1-8.41-3.36L943,788.67a33.06,33.06,0,0,1-.62-47.33L998,685.53A12.18,12.18,0,0,1,1006.67,682Z"/><path class="cls-2" d="M980.44,860.52v96.27a30.22,30.22,0,0,1-30.14,30.3H848.09a30.23,30.23,0,0,1-30.15-30.3V860.34a12.24,12.24,0,0,1,3.36-8.41l52.42-55a33.07,33.07,0,0,1,47.34-.62l55.81,55.63A12.19,12.19,0,0,1,980.44,860.52Z"/><path class="cls-2" d="M817.94,661V564.75a30.23,30.23,0,0,1,30.15-30.31H950.3a30.22,30.22,0,0,1,30.14,30.31v96.44a12.19,12.19,0,0,1-3.35,8.41l-52.42,55a33.07,33.07,0,0,1-47.34.62l-55.81-55.63A12.18,12.18,0,0,1,817.94,661Z"/><path class="cls-2" d="M790,682H693.71A30.23,30.23,0,0,0,663.4,712.1V814.31a30.23,30.23,0,0,0,30.31,30.14h96.44a12.16,12.16,0,0,0,8.41-3.36l55.05-52.42a33.06,33.06,0,0,0,.62-47.33L798.6,685.53A12.18,12.18,0,0,0,790,682Z"/><path class="cls-3" d="M2057,1285.57H878.28c-288,0-521.54-233.54-521.54-521.56S590.23,242.45,878.28,242.45h34.64"/><path class="cls-3" d="M1070.66,242.45H2212.43C2500.48,242.45,2734,476,2734,764c0,287.25-232.26,520.28-519.23,521.54"/><line class="cls-4" x1="1545.36" y1="1241.52" x2="1545.36" y2="399.34"/><line class="cls-4" x1="168.89" y1="1129.79" x2="264.16" y2="929.94"/><path class="cls-3" d="M848.73,1544.23l-42.15,85.4c-93.92,197-329.79,280.63-526.84,186.71h0C82.7,1722.41-.89,1486.54,93,1289.5l83.42-175"/><line class="cls-4" x1="910.86" y1="1419.98" x2="840.47" y2="1562.6"/><line class="cls-4" x1="2918.81" y1="1129.79" x2="2823.54" y2="929.94"/><path class="cls-3" d="M2239,1544.23l42.15,85.4c93.93,197,329.8,280.63,526.84,186.71h0c197-93.92,280.63-329.79,186.71-526.83l-83.43-175"/><line class="cls-4" x1="2176.85" y1="1419.98" x2="2247.24" y2="1562.6"/><path class="cls-3" d="M663.4,111.82a71.4,71.4,0,0,1,71.4-71.39h327c4.76,0,30.05.47,50.48,20.91a71.14,71.14,0,0,1,20.92,50.48"/><path class="cls-3" d="M1883.74,111.82a71.4,71.4,0,0,1,71.4-71.39h327c4.75,0,30.05.47,50.48,20.91a71.17,71.17,0,0,1,20.91,50.48"/><path class="cls-5" d="M229.88,2029.54l111.05,247.57a7.85,7.85,0,0,1-7.16,11.07H262.59a7.85,7.85,0,0,1-7.16-4.64l-23.67-52.78a7.85,7.85,0,0,0-7.17-4.64H117a7.85,7.85,0,0,0-7.17,4.64L86.2,2283.54a7.86,7.86,0,0,1-7.16,4.64H7.86A7.85,7.85,0,0,1,.7,2277.11l111.05-247.57a7.85,7.85,0,0,1,7.17-4.64H222.71A7.85,7.85,0,0,1,229.88,2029.54Zm-33.73,121.58-18-40.33a7.86,7.86,0,0,0-14.33,0l-18.24,40.33a7.85,7.85,0,0,0,7.15,11.09H189A7.85,7.85,0,0,0,196.15,2151.12Z"/><path class="cls-5" d="M461.07,2028.16l103.79,144a7.85,7.85,0,0,0,14.22-4.59V2032.75a7.84,7.84,0,0,1,7.85-7.85h67a7.84,7.84,0,0,1,7.85,7.85v247.57a7.85,7.85,0,0,1-7.85,7.86H575.58a7.86,7.86,0,0,1-6.37-3.26l-103.79-144a7.85,7.85,0,0,0-14.22,4.6v134.81a7.85,7.85,0,0,1-7.85,7.86h-67a7.85,7.85,0,0,1-7.85-7.86V2032.75a7.84,7.84,0,0,1,7.85-7.85H454.7A7.83,7.83,0,0,1,461.07,2028.16Z"/><path class="cls-5" d="M1006,2144.88v135.44a7.86,7.86,0,0,1-7.85,7.86H964.92a7.86,7.86,0,0,1-7.86-7.86h0a7.84,7.84,0,0,0-11.6-6.88c-24.41,13.28-55.1,20.76-90,20.76-101.55,0-159.84-50-159.84-137.66S754,2018.88,855.52,2018.88c76.74,0,132.48,34.22,148.25,94.29a7.87,7.87,0,0,1-7.59,9.89H924.51a7.84,7.84,0,0,1-7-4.34c-11.3-22.89-33.63-35.9-62-35.9-46.64,0-73.35,26.7-73.35,73.72s26.71,73.71,73.35,73.71c23.19,0,42.36-9.61,54.75-23.31a7.86,7.86,0,0,0-5.78-13.17H852.08a7.85,7.85,0,0,1-7.85-7.85v-33.19a7.85,7.85,0,0,1,7.85-7.85Z"/><path class="cls-5" d="M1346,2144.88v135.44a7.86,7.86,0,0,1-7.85,7.86h-33.2a7.86,7.86,0,0,1-7.85-7.86h0a7.84,7.84,0,0,0-11.6-6.88c-24.41,13.28-55.1,20.76-90,20.76-101.55,0-159.85-50-159.85-137.66s58.3-137.66,159.85-137.66c76.75,0,132.49,34.22,148.26,94.29a7.87,7.87,0,0,1-7.59,9.89h-71.67a7.83,7.83,0,0,1-7-4.34c-11.3-22.89-33.63-35.9-62-35.9-46.63,0-73.34,26.7-73.34,73.72s26.71,73.71,73.34,73.71c23.2,0,42.37-9.61,54.76-23.31a7.86,7.86,0,0,0-5.79-13.17h-52.4a7.85,7.85,0,0,1-7.85-7.85v-33.19a7.85,7.85,0,0,1,7.85-7.85Z"/><path class="cls-5" d="M1468.94,2032.75v247.57a7.86,7.86,0,0,1-7.85,7.86h-67a7.86,7.86,0,0,1-7.85-7.86V2032.75a7.85,7.85,0,0,1,7.85-7.85h67A7.85,7.85,0,0,1,1468.94,2032.75Z"/><path class="cls-5" d="M1575.94,2190a7.79,7.79,0,0,1,7,4.32c11.17,22.9,32.37,35.92,58.24,35.92,38.36,0,60.18-22.56,60.18-62.43V2032.75a7.84,7.84,0,0,1,7.85-7.85h67a7.84,7.84,0,0,1,7.85,7.85V2160.3c0,85-51.9,133.89-142.92,133.89-76.76,0-129.12-34.23-144.53-94.33a7.87,7.87,0,0,1,7.6-9.85Z"/><path class="cls-5" d="M2019,2029.54l111,247.57a7.85,7.85,0,0,1-7.16,11.07h-71.18a7.85,7.85,0,0,1-7.16-4.64l-23.67-52.78a7.85,7.85,0,0,0-7.17-4.64H1906.17a7.85,7.85,0,0,0-7.17,4.64l-23.67,52.78a7.86,7.86,0,0,1-7.16,4.64H1797a7.85,7.85,0,0,1-7.16-11.07l111.05-247.57a7.85,7.85,0,0,1,7.17-4.64h103.79A7.85,7.85,0,0,1,2019,2029.54Zm-33.73,121.58-18-40.33a7.85,7.85,0,0,0-14.32,0l-18.25,40.33a7.85,7.85,0,0,0,7.15,11.09h36.27A7.85,7.85,0,0,0,1985.28,2151.12Z"/><path class="cls-5" d="M2212.69,2190a7.79,7.79,0,0,1,7,4.32c11.18,22.9,32.37,35.92,58.24,35.92,38.37,0,60.18-22.56,60.18-62.43V2032.75a7.85,7.85,0,0,1,7.85-7.85h67a7.85,7.85,0,0,1,7.86,7.85V2160.3c0,85-51.91,133.89-142.93,133.89-76.76,0-129.12-34.23-144.53-94.33a7.87,7.87,0,0,1,7.6-9.85Z"/><path class="cls-5" d="M2655.76,2029.54l111,247.57a7.85,7.85,0,0,1-7.16,11.07h-71.18a7.86,7.86,0,0,1-7.16-4.64l-23.67-52.78a7.85,7.85,0,0,0-7.17-4.64H2542.92a7.86,7.86,0,0,0-7.17,4.64l-23.67,52.78a7.85,7.85,0,0,1-7.16,4.64h-71.18a7.85,7.85,0,0,1-7.16-11.07l111.05-247.57a7.86,7.86,0,0,1,7.17-4.64h103.79A7.85,7.85,0,0,1,2655.76,2029.54ZM2622,2151.12l-18-40.33a7.85,7.85,0,0,0-14.32,0l-18.25,40.33a7.85,7.85,0,0,0,7.15,11.09h36.27A7.85,7.85,0,0,0,2622,2151.12Z"/><path class="cls-5" d="M2887,2028.16l103.78,144a7.85,7.85,0,0,0,14.22-4.59V2032.75a7.85,7.85,0,0,1,7.85-7.85h67a7.85,7.85,0,0,1,7.86,7.85v247.57a7.86,7.86,0,0,1-7.86,7.86h-78.39a7.86,7.86,0,0,1-6.37-3.26l-103.79-144a7.85,7.85,0,0,0-14.22,4.6v134.81a7.85,7.85,0,0,1-7.85,7.86h-67a7.85,7.85,0,0,1-7.85-7.86V2032.75a7.84,7.84,0,0,1,7.85-7.85h78.4A7.86,7.86,0,0,1,2887,2028.16Z"/></g></g></svg>